<svg id="Layer_1" data-name="Layer 1" xmlns="http://www.w3.org/2000/svg" viewBox="0 0 325 32"><title>header_support_grid_online_li</title><rect x="128" y="3" width="1" height="23" style="fill:#fff"/><path d="M138.9,17.54a3.3,3.3,0,0,0,1.25,2.28,6.52,6.52,0,0,0,4.62.48,2.69,2.69,0,0,0,1.06-.59,2,2,0,0,0,.57-.86,3.19,3.19,0,0,0,.17-1,3.48,3.48,0,0,0-.11-.85,1.75,1.75,0,0,0-.41-.74,2.5,2.5,0,0,0-.84-.59,5.36,5.36,0,0,0-1.37-.4L142,14.89a10.78,10.78,0,0,1-2-.5,5,5,0,0,1-1.46-.81,3.07,3.07,0,0,1-.9-1.23,4.7,4.7,0,0,1-.3-1.78,3.64,3.64,0,0,1,.43-1.81,3.89,3.89,0,0,1,1.16-1.3,5.13,5.13,0,0,1,1.74-.78,9.47,9.47,0,0,1,2.19-.25,8.07,8.07,0,0,1,2.49.33,4.62,4.62,0,0,1,1.62.87,3.71,3.71,0,0,1,1,1.25,7,7,0,0,1,.49,1.44l-1.8.35a5.44,5.44,0,0,0-.43-1.12,2.53,2.53,0,0,0-.7-.82,2.89,2.89,0,0,0-1.06-.49,6.1,6.1,0,0,0-1.53-.17,6.44,6.44,0,0,0-1.72.19,3.18,3.18,0,0,0-1.11.51,1.87,1.87,0,0,0-.6.78,2.56,2.56,0,0,0-.18,1,2.75,2.75,0,0,0,.14,1,1.74,1.74,0,0,0,.46.72,2.48,2.48,0,0,0,.85.5A8.21,8.21,0,0,0,142,13l2.1.37a6.89,6.89,0,0,1,3.42,1.46,3.9,3.9,0,0,1,1.09,3,4.18,4.18,0,0,1-.34,1.69,3.9,3.9,0,0,1-1,1.37,5.18,5.18,0,0,1-1.71.93,8,8,0,0,1-2.42.33,10.45,10.45,0,0,1-2.4-.26,5.46,5.46,0,0,1-1.88-.83,4.26,4.26,0,0,1-1.28-1.45,5.33,5.33,0,0,1-.59-2.1Z" style="fill:#fff"/><path d="M151,11h1.82v6.84a3.56,3.56,0,0,0,.5,2.15,1.89,1.89,0,0,0,1.6.63,3.25,3.25,0,0,0,2.21-.89,3.56,3.56,0,0,0,.8-1,2.9,2.9,0,0,0,.27-1.34V11H160V21.8h-1.8V20.12a5.32,5.32,0,0,1-1.72,1.54,4.28,4.28,0,0,1-2,.48,3.3,3.3,0,0,1-2.68-1,4.6,4.6,0,0,1-.82-3Z" style="fill:#fff"/><path d="M162.88,11h1.81V12.5a4.72,4.72,0,0,1,1.56-1.41,4.36,4.36,0,0,1,2.09-.48,4.63,4.63,0,0,1,2,.42,4,4,0,0,1,1.45,1.18,5.23,5.23,0,0,1,.86,1.79,8.73,8.73,0,0,1,.28,2.3,8,8,0,0,1-.34,2.43,5.28,5.28,0,0,1-1,1.84,4.32,4.32,0,0,1-1.52,1.16,4.85,4.85,0,0,1-2,.41,4.66,4.66,0,0,1-1.82-.37,3.83,3.83,0,0,1-1.6-1.31v5.42h-1.83Zm1.81,5.73a5.94,5.94,0,0,0,.24,1.8,3.47,3.47,0,0,0,.66,1.22,2.45,2.45,0,0,0,1,.71,3.78,3.78,0,0,0,1.28.22,3.43,3.43,0,0,0,1.25-.23,2.5,2.5,0,0,0,1-.75,3.76,3.76,0,0,0,.66-1.33,7.2,7.2,0,0,0,.24-2,6.74,6.74,0,0,0-.26-2,3.73,3.73,0,0,0-.69-1.29,2.35,2.35,0,0,0-1-.7,3,3,0,0,0-1.1-.21,3.42,3.42,0,0,0-1.33.25,2.91,2.91,0,0,0-1.06.71,3.2,3.2,0,0,0-.7,1.2,5,5,0,0,0-.25,1.67Z" style="fill:#fff"/><path d="M175.41,11h1.81V12.5a4.82,4.82,0,0,1,1.56-1.41,4.36,4.36,0,0,1,2.09-.48,4.63,4.63,0,0,1,2,.42,4,4,0,0,1,1.45,1.18,5.23,5.23,0,0,1,.86,1.79,8.73,8.73,0,0,1,.28,2.3,8.3,8.3,0,0,1-.33,2.43,5.46,5.46,0,0,1-1,1.84,4.32,4.32,0,0,1-1.52,1.16,4.85,4.85,0,0,1-2,.41,4.7,4.7,0,0,1-1.82-.37,3.83,3.83,0,0,1-1.6-1.31v5.42h-1.83Zm1.81,5.73a5.94,5.94,0,0,0,.24,1.8,3.47,3.47,0,0,0,.66,1.22,2.45,2.45,0,0,0,1,.71,3.78,3.78,0,0,0,1.28.22,3.43,3.43,0,0,0,1.25-.23,2.5,2.5,0,0,0,1-.75,3.76,3.76,0,0,0,.66-1.33,7.2,7.2,0,0,0,.24-2,6.74,6.74,0,0,0-.26-2,3.73,3.73,0,0,0-.69-1.29,2.35,2.35,0,0,0-1-.7,3,3,0,0,0-1.1-.21,3.42,3.42,0,0,0-1.33.25,2.91,2.91,0,0,0-1.06.71,3.2,3.2,0,0,0-.7,1.2,5,5,0,0,0-.25,1.67Z" style="fill:#fff"/><path d="M192.76,22.14a5.64,5.64,0,0,1-2.2-.4,4.42,4.42,0,0,1-1.64-1.13,4.93,4.93,0,0,1-1-1.81,7.45,7.45,0,0,1-.36-2.39,7.28,7.28,0,0,1,.38-2.4A5.22,5.22,0,0,1,189,12.19,4.68,4.68,0,0,1,190.65,11a5.65,5.65,0,0,1,2.18-.41A5.57,5.57,0,0,1,195,11a4.78,4.78,0,0,1,1.65,1.14,5.16,5.16,0,0,1,1,1.8,7.28,7.28,0,0,1,.36,2.37,7.59,7.59,0,0,1-.37,2.42,5.48,5.48,0,0,1-1.05,1.83A4.6,4.6,0,0,1,195,21.73,5.76,5.76,0,0,1,192.76,22.14Zm0-1.51a3.38,3.38,0,0,0,1.52-.32,2.85,2.85,0,0,0,1-.88,3.77,3.77,0,0,0,.59-1.35,7.31,7.31,0,0,0,.19-1.74,7,7,0,0,0-.19-1.7,3.6,3.6,0,0,0-.59-1.33,2.92,2.92,0,0,0-1-.87,3.38,3.38,0,0,0-1.52-.32,3.32,3.32,0,0,0-1.5.32,3,3,0,0,0-1,.87,3.6,3.6,0,0,0-.59,1.33,7.16,7.16,0,0,0-.19,1.73,7.08,7.08,0,0,0,.19,1.72,3.89,3.89,0,0,0,.58,1.34,2.74,2.74,0,0,0,1,.88A3.36,3.36,0,0,0,192.78,20.63Z" style="fill:#fff"/><path d="M200.5,11h1.8v1.68a4.49,4.49,0,0,1,1.43-1.39,3.41,3.41,0,0,1,1.74-.48,5.34,5.34,0,0,1,1,.08l-.23,1.7-.42-.07a3.33,3.33,0,0,0-.46,0,3.15,3.15,0,0,0-1,.18,3,3,0,0,0-1,.59,3.1,3.1,0,0,0-.73.93,2.74,2.74,0,0,0-.26,1.22V21.8H200.5Z" style="fill:#fff"/><path d="M209.47,12.4h-1.68V11h1.68V8h1.83v3h2.87V12.4H211.3v6.36a2.09,2.09,0,0,0,.35,1.28,1.28,1.28,0,0,0,1.1.48,4.74,4.74,0,0,0,.8-.06,3.73,3.73,0,0,0,.64-.17l.32,1.41a5.88,5.88,0,0,1-.92.24,6.34,6.34,0,0,1-1.16.1,3.47,3.47,0,0,1-1.49-.28A2.19,2.19,0,0,1,210,21a3,3,0,0,1-.46-1.2,10.1,10.1,0,0,1-.11-1.51Z" style="fill:#fff"/><path d="M227.63,14.1h5.61v6A6.72,6.72,0,0,1,232,21a8.81,8.81,0,0,1-1.43.65,9.8,9.8,0,0,1-1.53.39,10.28,10.28,0,0,1-1.54.12,7.76,7.76,0,0,1-3-.53,5.83,5.83,0,0,1-2.19-1.55A6.65,6.65,0,0,1,221,17.64a10.94,10.94,0,0,1-.46-3.31A10.23,10.23,0,0,1,221,11a7.2,7.2,0,0,1,1.4-2.48A5.81,5.81,0,0,1,224.57,7a6.86,6.86,0,0,1,2.71-.53,7.13,7.13,0,0,1,2.22.31,4.63,4.63,0,0,1,1.65.87A4.7,4.7,0,0,1,232.27,9a6.85,6.85,0,0,1,.68,1.76l-1.87.31a7.1,7.1,0,0,0-.45-1.2,3.17,3.17,0,0,0-.73-.93,3,3,0,0,0-1.08-.6,5,5,0,0,0-1.54-.21,4.47,4.47,0,0,0-2.06.45,4.09,4.09,0,0,0-1.47,1.27,6,6,0,0,0-.89,2,9.48,9.48,0,0,0-.31,2.53,10,10,0,0,0,.3,2.53,5.37,5.37,0,0,0,.91,2,4.09,4.09,0,0,0,1.54,1.26,5,5,0,0,0,2.19.44,8.18,8.18,0,0,0,2.13-.27,5.4,5.4,0,0,0,1.79-.86V15.78h-3.78Z" style="fill:#fff"/><path d="M236.07,11h1.81v1.68a4.49,4.49,0,0,1,1.43-1.39,3.36,3.36,0,0,1,1.74-.48,5.34,5.34,0,0,1,1,.08l-.23,1.7-.42-.07a3.48,3.48,0,0,0-.47,0,3.19,3.19,0,0,0-1,.18,2.85,2.85,0,0,0-1,.59,3.1,3.1,0,0,0-.73.93,2.74,2.74,0,0,0-.26,1.22V21.8h-1.83Z" style="fill:#fff"/><path d="M243.84,6.81h2V8.93h-2Zm.07,4.14h1.82V21.8h-1.82Z" style="fill:#fff"/><path d="M256.46,20.25a5,5,0,0,1-1.56,1.4,4.18,4.18,0,0,1-2.08.49,4.58,4.58,0,0,1-2.07-.44,3.91,3.91,0,0,1-1.43-1.21,5.12,5.12,0,0,1-.84-1.81,8.62,8.62,0,0,1-.28-2.25,8,8,0,0,1,.34-2.43,5.29,5.29,0,0,1,1-1.83A4.12,4.12,0,0,1,251,11a4.92,4.92,0,0,1,3.77,0,4,4,0,0,1,1.63,1.31V6.81h1.83v15h-1.78Zm0-4.2a5.75,5.75,0,0,0-.29-2,2.92,2.92,0,0,0-.93-1.23,2.85,2.85,0,0,0-.94-.52,3.56,3.56,0,0,0-2.28.08,2.55,2.55,0,0,0-1,.75,3.73,3.73,0,0,0-.68,1.32,7,7,0,0,0-.24,2,6.47,6.47,0,0,0,.27,2,3.4,3.4,0,0,0,.69,1.3,2.48,2.48,0,0,0,1,.7,3,3,0,0,0,1.1.21,3.68,3.68,0,0,0,1.09-.15,3.59,3.59,0,0,0,1-.5,3.29,3.29,0,0,0,.95-1.26,4.85,4.85,0,0,0,.33-1.91Z" style="fill:#fff"/><path d="M272.39,22.18a7.46,7.46,0,0,1-2.8-.51,6,6,0,0,1-2.18-1.51A6.88,6.88,0,0,1,266,17.69a10.23,10.23,0,0,1-.51-3.36A10.22,10.22,0,0,1,266,11a7.09,7.09,0,0,1,1.43-2.48A6,6,0,0,1,269.61,7a7.7,7.7,0,0,1,5.59,0,5.79,5.79,0,0,1,2.17,1.51,7,7,0,0,1,1.41,2.46,10.4,10.4,0,0,1,.5,3.35,10.62,10.62,0,0,1-.49,3.37,7,7,0,0,1-1.4,2.48,5.78,5.78,0,0,1-2.17,1.54A7.35,7.35,0,0,1,272.39,22.18Zm0-1.68a4.68,4.68,0,0,0,2.11-.44A4.12,4.12,0,0,0,276,18.81a5.87,5.87,0,0,0,.92-1.95,9.56,9.56,0,0,0,.32-2.55,9.47,9.47,0,0,0-.32-2.53,5.8,5.8,0,0,0-.93-2,4.34,4.34,0,0,0-1.53-1.26,4.77,4.77,0,0,0-2.1-.44,4.91,4.91,0,0,0-2.13.44,4.25,4.25,0,0,0-1.53,1.26,5.8,5.8,0,0,0-.93,2,9.92,9.92,0,0,0-.3,2.53,10,10,0,0,0,.3,2.55,5.68,5.68,0,0,0,.92,1.95,4,4,0,0,0,1.52,1.25A4.83,4.83,0,0,0,272.39,20.5Z" style="fill:#fff"/><path d="M281.93,11h1.81v1.66a4.5,4.5,0,0,1,3.8-2,3.48,3.48,0,0,1,2.74,1,4.31,4.31,0,0,1,.89,3V21.8h-1.82V14.94a3.19,3.19,0,0,0-.55-2.13,2.09,2.09,0,0,0-1.68-.62,3.63,3.63,0,0,0-1.21.21,2.92,2.92,0,0,0-1.08.67,3.72,3.72,0,0,0-.8,1,2.9,2.9,0,0,0-.27,1.34V21.8h-1.83Z" style="fill:#fff"/><path d="M294,6.81h1.82v15H294Z" style="fill:#fff"/><path d="M298.67,6.81h1.95V8.93h-1.95Zm.06,4.14h1.83V21.8h-1.83Z" style="fill:#fff"/><path d="M303.44,11h1.81v1.66A4.84,4.84,0,0,1,307,11.07a4.76,4.76,0,0,1,2-.46,3.49,3.49,0,0,1,2.74,1,4.36,4.36,0,0,1,.89,3V21.8h-1.83V14.94a3.25,3.25,0,0,0-.54-2.13,2.12,2.12,0,0,0-1.68-.62,3.63,3.63,0,0,0-1.21.21,2.92,2.92,0,0,0-1.08.67,3.53,3.53,0,0,0-.8,1,2.9,2.9,0,0,0-.27,1.34V21.8h-1.83Z" style="fill:#fff"/><path d="M324.8,18.76a3.92,3.92,0,0,1-1.4,2.48,5,5,0,0,1-3.22.9,4.78,4.78,0,0,1-3.8-1.5,6.09,6.09,0,0,1-1.33-4.19,7.68,7.68,0,0,1,.38-2.5,5.13,5.13,0,0,1,1.06-1.83A4.61,4.61,0,0,1,318.12,11a5.32,5.32,0,0,1,2.06-.39,5.24,5.24,0,0,1,2.16.4,3.94,3.94,0,0,1,1.48,1.1,4.65,4.65,0,0,1,.86,1.67A7.5,7.5,0,0,1,325,15.9v.93H316.9a5,5,0,0,0,.22,1.52,3.91,3.91,0,0,0,.63,1.22,2.91,2.91,0,0,0,1,.81,3.29,3.29,0,0,0,1.41.29,3.14,3.14,0,0,0,2-.51,2.59,2.59,0,0,0,.86-1.4Zm-1.66-3.3a5.56,5.56,0,0,0-.17-1.41,3.1,3.1,0,0,0-.52-1.08,2.44,2.44,0,0,0-.93-.7,3.3,3.3,0,0,0-1.36-.25,2.9,2.9,0,0,0-2.26.88,4.24,4.24,0,0,0-1,2.56Z" style="fill:#fff"/><path d="M17.06,14.56c0,3.78-2.17,7.87-8,7.87-4.21,0-8-2.35-8-7.87C1,10,3.89,6.45,9.62,6.77,15.72,7.11,17.06,11.84,17.06,14.56ZM6.18,11.68a5.22,5.22,0,0,0-.74,2.85C5.44,16.85,6.58,19,9.05,19S12.6,17,12.6,14.73a4.86,4.86,0,0,0-1.23-3.66,3.24,3.24,0,0,0-2.58-.81A3,3,0,0,0,6.18,11.68Z" style="fill:#fff"/><path d="M56.15,8.46a4.32,4.32,0,0,1,1.49-1.18,7.4,7.4,0,0,1,2.72-.51A5.65,5.65,0,0,1,63,7.34c1.57.83,2,2.18,2,4.5V22.06H60.61V13.64a5.8,5.8,0,0,0-.2-2.23,2,2,0,0,0-2-1.15c-2.32,0-2.32,1.86-2.32,3.72v8.08H51.71V7.14h4.44Z" style="fill:#fff"/><path d="M49.61,18.2c-.4.85-1.7,4.23-7.44,4.23-4.44,0-7.56-2.71-7.56-7.61,0-3.61,1.78-8,7.67-8a6.9,6.9,0,0,1,5.39,2c1.94,2.09,2.06,5,2.12,6.7H39.11a3.36,3.36,0,0,0,3.4,3.72,3.94,3.94,0,0,0,3.78-2.63Zm-4.38-5.53a3.52,3.52,0,0,0-.83-2.12,3.1,3.1,0,0,0-2.14-.83,3,3,0,0,0-2.24,1,3.86,3.86,0,0,0-.88,2Z" style="fill:#fff"/><path d="M110.93,10.24h2.92V7.14H111V4h-4.38V7.14h-.69l-2,3.1h2.7v7.09a5.77,5.77,0,0,0,.63,3.38c1,1.38,2.61,1.46,4.13,1.46a13.46,13.46,0,0,0,2.32-.23V18.51l-1.58.06c-1.17,0-1.17-.78-1.14-1.69Z" style="fill:#fff"/><path d="M67.19,4h4.38V7.14h4.55l-2,3.1H71.54v6.64c0,.91,0,1.69,1.15,1.69l1.57-.06v3.43a13.37,13.37,0,0,1-2.32.23c-1.52,0-3.18-.08-4.12-1.46a5.77,5.77,0,0,1-.63-3.38Z" style="fill:#fff"/><path d="M117.91,10.24h-.55V7.6h-1V7.14h2.52V7.6h-1Zm4.24,0h-.53l0-1.91,0-.64-.15.52-.64,2h-.48l-.63-2-.16-.51,0,.63,0,1.91h-.52V7.14h.73l.78,2.45.75-2.45h.74Z" style="fill:#fff"/><path d="M89.93,18.21l-.84,1.3c-.79,1.15-2.27,2.92-6.5,2.92-4.44,0-7.42-2.71-7.42-7.61,0-3.61,1.78-8,7.68-8a6.89,6.89,0,0,1,5.38,2c2,2.09,2.06,5,2.12,6.7H79.67c0,1.86.89,3.72,3.27,3.72s3.09-1.57,3.64-2.63Zm-4.14-5.54A3.52,3.52,0,0,0,85,10.55a3.1,3.1,0,0,0-2.14-.83,3,3,0,0,0-2.24,1,3.86,3.86,0,0,0-.88,2Z" style="fill:#fff"/><polygon points="104.94 22.06 99.46 14.21 104.03 7.14 99.01 7.14 96.86 10.48 94.53 7.14 89.52 7.14 94.44 14.21 89.37 22.06 94.38 22.06 97.05 17.94 99.92 22.06 104.94 22.06" style="fill:#fff"/><path d="M23.12,8.46A4.79,4.79,0,0,1,27,6.77c3.67,0,6.25,2.78,6.25,7.76,0,3.06-1.12,7.9-6.43,7.9a4.78,4.78,0,0,1-3.77-1.69V27H18.68V7.14h4.44Zm3,1.75a2.82,2.82,0,0,0-2.26,1.12,5.25,5.25,0,0,0-.92,3.28A5.05,5.05,0,0,0,24,18.05a2.72,2.72,0,0,0,2,.9c2.15,0,3.09-2.26,3.09-4.45,0-1.84-.54-3.78-2.35-4.21A2.47,2.47,0,0,0,26.1,10.21Z" style="fill:#fff"/></svg>