<svg xmlns="http://www.w3.org/2000/svg" viewBox="0 0 112 112"><defs><style>.cls-1{fill:#fff;}</style></defs><title>tile-folder</title><g id="Layer_1" data-name="Layer 1"><path class="cls-1" d="M56,1A55,55,0,1,1,1,56,55.06,55.06,0,0,1,56,1m0-1a56,56,0,1,0,56,56A56,56,0,0,0,56,0Z"/><path class="cls-1" d="M80.75,51.92a24.9,24.9,0,0,0-4.36-10.54l3.71-3.71L74.33,31.9,70.6,35.63a25,25,0,0,0-10.52-4.37V26H51.92v5.26A25,25,0,0,0,41.4,35.63L37.67,31.9,31.9,37.67l3.71,3.71a24.9,24.9,0,0,0-4.36,10.54H26v8.16h5.25a24.9,24.9,0,0,0,4.36,10.54L31.9,74.33l5.77,5.77,3.73-3.73a25,25,0,0,0,10.52,4.37V86h8.16V80.74A25,25,0,0,0,70.6,76.37l3.73,3.73,5.77-5.77-3.71-3.71a24.9,24.9,0,0,0,4.36-10.54H86V51.92ZM56,77.84A21.84,21.84,0,1,1,77.84,56,21.84,21.84,0,0,1,56,77.84Z"/><path class="cls-1" d="M68.63,64.62a12.39,12.39,0,0,0-.56-3.25,3.31,3.31,0,0,0-2-2.08,14.4,14.4,0,0,0-3.2-.87,11.79,11.79,0,0,1-2.42-.63,2.79,2.79,0,0,1-1-.77,3.4,3.4,0,0,1-.4-.6l-.19-.36.3-.25a5.81,5.81,0,0,0,1.23-1.41,8.49,8.49,0,0,0,1.07-2.76l.06-.3.29-.08a.87.87,0,0,0,.42-.35,2.55,2.55,0,0,0,.4-1,2.15,2.15,0,0,0-.15-1.37l-.1-.17,0-.2.06-.23a7.42,7.42,0,0,0,.1-1.82A12.21,12.21,0,0,0,62.31,44a4.86,4.86,0,0,0-2-2.61,7.18,7.18,0,0,0-4.21-1.29h-.26a7.18,7.18,0,0,0-4.21,1.29,4.86,4.86,0,0,0-2,2.61,12.21,12.21,0,0,0-.32,2.18,7.42,7.42,0,0,0,.1,1.82l.06.23,0,.2-.1.17a2.15,2.15,0,0,0-.15,1.37,2.55,2.55,0,0,0,.4,1,.87.87,0,0,0,.42.35l.29.08.06.3a8.49,8.49,0,0,0,1.07,2.76,5.81,5.81,0,0,0,1.23,1.41l.3.25-.19.36a3.4,3.4,0,0,1-.4.6,2.79,2.79,0,0,1-1,.77,11.79,11.79,0,0,1-2.42.63,14.4,14.4,0,0,0-3.2.87,3.31,3.31,0,0,0-2,2.08,12.39,12.39,0,0,0-.56,3.25,2.83,2.83,0,0,0-.07.58v1.32a2.29,2.29,0,0,0,2.26,2.26H66.45a2.29,2.29,0,0,0,2.26-2.26V65.2A2.83,2.83,0,0,0,68.63,64.62Z"/></g></svg>