<svg xmlns="http://www.w3.org/2000/svg" viewBox="0 0 112 112"><defs><style>.cls-1{fill:#fff;}</style></defs><title>tile-folder</title><g id="Layer_1" data-name="Layer 1"><path class="cls-1" d="M56,1A55,55,0,1,1,1,56,55.06,55.06,0,0,1,56,1m0-1a56,56,0,1,0,56,56A56,56,0,0,0,56,0Z"/><path class="cls-1" d="M47.54,59.09l.39-.07a13.12,13.12,0,0,1-1.18-2.79,4.34,4.34,0,0,1-.74-.9A6.07,6.07,0,0,1,45.1,53c0-.07,0-.15,0-.22l-.2-.06a3.07,3.07,0,0,1-1.11-.84,3.73,3.73,0,0,1-.44-.66l-.21-.39.33-.28A6.38,6.38,0,0,0,44.82,49c.11-.18.18-.38.28-.57s0-.41,0-.61a17.37,17.37,0,0,1,.46-3.07,9.47,9.47,0,0,1,1.58-3,8.15,8.15,0,0,0,.09-1.8,13.39,13.39,0,0,0-.35-2.39,5.34,5.34,0,0,0-2.16-2.87,7.88,7.88,0,0,0-4.62-1.41h-.28a7.88,7.88,0,0,0-4.62,1.41A5.34,5.34,0,0,0,33,37.53a13.42,13.42,0,0,0-.35,2.39,8.13,8.13,0,0,0,.11,2l.07.25.05.22-.11.19a2.36,2.36,0,0,0-.16,1.5,2.8,2.8,0,0,0,.43,1.1,1,1,0,0,0,.46.38l.32.09.07.33a9.32,9.32,0,0,0,1.17,3,6.38,6.38,0,0,0,1.35,1.54l.33.28-.21.39a3.74,3.74,0,0,1-.43.66,3.07,3.07,0,0,1-1.11.84,13,13,0,0,1-2.65.69l-.25,0a7.23,7.23,0,0,0-6,6.71v.05a3.12,3.12,0,0,0-.08.64V62.3a2.52,2.52,0,0,0,2.48,2.48H38.92v0a7.07,7.07,0,0,1,4.22-4.48A19.71,19.71,0,0,1,47.54,59.09Z"/><path class="cls-1" d="M53.9,66.94h2.44a11.7,11.7,0,0,1,.51-1.23L55.13,64l4.32-4.33,0-.08.35-.29a6.75,6.75,0,0,0,1.43-1.63,9.86,9.86,0,0,0,1.24-3.2l.07-.34.34-.09a1,1,0,0,0,.48-.41,3,3,0,0,0,.46-1.16,2.49,2.49,0,0,0-.17-1.59l-.11-.2.06-.23.07-.26a8.61,8.61,0,0,0,.11-2.12,14.16,14.16,0,0,0-.37-2.53,5.64,5.64,0,0,0-2.29-3A8.32,8.32,0,0,0,56.19,41h-.3A8.32,8.32,0,0,0,51,42.5a5.64,5.64,0,0,0-2.29,3,14.16,14.16,0,0,0-.37,2.53,8.61,8.61,0,0,0,.11,2.12l.07.26.06.23-.11.2a2.49,2.49,0,0,0-.17,1.59,3,3,0,0,0,.46,1.16,1,1,0,0,0,.48.41l.34.09.07.34a9.86,9.86,0,0,0,1.24,3.2,6.75,6.75,0,0,0,1.43,1.63l.35.29-.22.41a3.93,3.93,0,0,1-.46.7,3.24,3.24,0,0,1-1.17.89,13.7,13.7,0,0,1-2.8.73,16.69,16.69,0,0,0-3.71,1A3.83,3.83,0,0,0,42,65.72a14.36,14.36,0,0,0-.65,3.77,3.27,3.27,0,0,0-.09.67v1.53a2.66,2.66,0,0,0,2.62,2.62h10Z"/><path class="cls-1" d="M85.92,60.21v-.05a7.23,7.23,0,0,0-6-6.71l-.25,0A13,13,0,0,1,77,52.72a3.07,3.07,0,0,1-1.11-.84,3.71,3.71,0,0,1-.44-.66l-.21-.39.33-.28A6.39,6.39,0,0,0,76.92,49a9.33,9.33,0,0,0,1.17-3l.07-.33.32-.09a1,1,0,0,0,.46-.38,2.81,2.81,0,0,0,.44-1.1,2.36,2.36,0,0,0-.16-1.5l-.11-.19.05-.22.07-.25a8.15,8.15,0,0,0,.11-2A13.4,13.4,0,0,0,79,37.53a5.33,5.33,0,0,0-2.16-2.87,7.88,7.88,0,0,0-4.62-1.41h-.28a7.88,7.88,0,0,0-4.62,1.41,5.34,5.34,0,0,0-2.16,2.87,13.44,13.44,0,0,0-.35,2.39,8.16,8.16,0,0,0,.07,1.68,9,9,0,0,1,1.62,3A17.55,17.55,0,0,1,67,47.87c0,.24,0,.5,0,.75s.12.27.19.39a6.38,6.38,0,0,0,1.35,1.54l.33.28-.21.39a3.73,3.73,0,0,1-.43.66,3.07,3.07,0,0,1-1.11.84l-.13,0c0,.13,0,.27,0,.4A5.82,5.82,0,0,1,66,55.43a3.57,3.57,0,0,1-.67.8c-.12.41-.27.8-.43,1.2h6v2.45a11.54,11.54,0,0,1,1.22.51l1.73-1.73L79.23,64l-.79.79h5.07A2.52,2.52,0,0,0,86,62.3V60.85A3.1,3.1,0,0,0,85.92,60.21Z"/><path class="cls-1" d="M76.26,69.21a9.13,9.13,0,0,0-1.6-3.87L76,64,73.9,61.87l-1.37,1.37a9.17,9.17,0,0,0-3.86-1.6V59.71h-3v1.93a9.17,9.17,0,0,0-3.86,1.6l-1.37-1.37L58.34,64l1.36,1.36a9.13,9.13,0,0,0-1.6,3.87H56.17v3H58.1a9.13,9.13,0,0,0,1.6,3.87l-1.36,1.36,2.12,2.12,1.37-1.37a9.17,9.17,0,0,0,3.86,1.6v1.93h3V79.79a9.17,9.17,0,0,0,3.86-1.6l1.37,1.37L76,77.43l-1.36-1.36a9.13,9.13,0,0,0,1.6-3.87h1.92v-3ZM67.18,77a6.33,6.33,0,1,1,6.33-6.33A6.33,6.33,0,0,1,67.18,77Z"/></g></svg>