<svg xmlns="http://www.w3.org/2000/svg" viewBox="0 0 112 112"><defs><style>.cls-1{fill:#fff;}</style></defs><title>tile-folder</title><g id="Layer_1" data-name="Layer 1"><path class="cls-1" d="M56,1A55,55,0,1,1,1,56,55.06,55.06,0,0,1,56,1m0-1a56,56,0,1,0,56,56A56,56,0,0,0,56,0Z"/><path class="cls-1" d="M73.2,33.47a2.22,2.22,0,0,0-1.13.31L52.47,45.35a6.28,6.28,0,0,0-3.07,5.39v29a6.25,6.25,0,0,0,9.43,5.39l13.52-8a6.28,6.28,0,0,0,3.07-5.39V35.69a2.22,2.22,0,0,0-2.22-2.22Z"/><path class="cls-1" d="M49.41,80h-.16a4,4,0,0,1-4-4V47a4,4,0,0,1,2-3.47L66.79,32V36.9L69,35.59V32A2.22,2.22,0,0,0,65.66,30L46.06,41.62A6.28,6.28,0,0,0,43,47V76a6.27,6.27,0,0,0,6.26,6.26,6.1,6.1,0,0,0,.66,0A6.22,6.22,0,0,1,49.41,80Z"/><path class="cls-1" d="M43,76.3h-.16a4,4,0,0,1-4-4v-29a4,4,0,0,1,2-3.47l19.6-11.57v4.94l2.22-1.31V28.22a2.22,2.22,0,0,0-3.35-1.91L39.66,37.88a6.28,6.28,0,0,0-3.07,5.39v29a6.27,6.27,0,0,0,6.26,6.26,6.1,6.1,0,0,0,.66,0A6.22,6.22,0,0,1,43,76.3Z"/></g></svg>