<svg xmlns="http://www.w3.org/2000/svg" viewBox="0 0 112 112"><defs><style>.cls-1{fill:#fff;}</style></defs><title>tile-folder</title><g id="Layer_1" data-name="Layer 1"><path class="cls-1" d="M56,1A55,55,0,1,1,1,56,55.06,55.06,0,0,1,56,1m0-1a56,56,0,1,0,56,56A56,56,0,0,0,56,0Z"/><path class="cls-1" d="M81.55,35.61C80.46,34.79,79.92,34,78.29,34H34c-1.63.27-2.17,1.09-3.53,1.9L56,59.77Z"/><path class="cls-1" d="M84.27,38.87,57.12,63.57a2.05,2.05,0,0,1-1.09.27,1,1,0,0,1-.81-.27L28.07,38.87a7.08,7.08,0,0,0-1.9,4.62V69.54A8.12,8.12,0,0,0,34,77.69H78.29a8.06,8.06,0,0,0,7.87-7.87V43.75A7.81,7.81,0,0,0,84.27,38.87Z"/></g></svg>