<svg xmlns="http://www.w3.org/2000/svg" viewBox="0 0 112 112"><defs><style>.cls-1{fill:#fff;}</style></defs><title>tile-folder</title><g id="Layer_1" data-name="Layer 1"><g id="Layer_1-2" data-name="Layer 1"><path class="cls-1" d="M56,1A55,55,0,1,1,1,56,55.06,55.06,0,0,1,56,1m0-1a56,56,0,1,0,56,56A56.06,56.06,0,0,0,56,0Z"/></g><path class="cls-1" d="M61.08,53.87a1.23,1.23,0,0,0-1.64-.34l-8.6,6a16.92,16.92,0,0,1-1.71,1.19L37.51,68.76c-2.09,1.45-3.21,3.71-2.29,4.9l3.7,4.81c.91,1.18,3.25.51,5-1.34L62.71,57.78a1.38,1.38,0,0,0,0-1.76Z"/><path class="cls-1" d="M72.41,65.13a1.19,1.19,0,0,0,.92.44,1.17,1.17,0,0,0,.75-.26L81.9,59a1.19,1.19,0,1,0-1.49-1.85l-7.82,6.34A1.19,1.19,0,0,0,72.41,65.13Z"/><path class="cls-1" d="M56.7,42.33l7.65-6.2a1.19,1.19,0,1,0-1.49-1.85L55.92,39.9A16.72,16.72,0,0,1,56.7,42.33Z"/><path class="cls-1" d="M78.34,52.14l-9.8-12.75a1.33,1.33,0,0,0-1.9-.23L58.83,45.5a1.42,1.42,0,0,0-.22,1.95L68.4,60.2a1.33,1.33,0,0,0,1.9.23l7.82-6.34A1.42,1.42,0,0,0,78.34,52.14Z"/><path class="cls-1" d="M86.35,70.41H71.67a.85.85,0,0,0,0,1.66H86.35a.85.85,0,0,0,0-1.66Z"/><path class="cls-1" d="M40.37,33A13.33,13.33,0,1,0,53.69,46.34,13.33,13.33,0,0,0,40.37,33Zm8.76,13.87L34.07,53.5l-3.52-8A1.78,1.78,0,0,1,33.81,44l2.1,4.78,11.8-5.17a1.78,1.78,0,0,1,1.43,3.26Z"/></g></svg>