<svg xmlns="http://www.w3.org/2000/svg" viewBox="0 0 112 112"><defs><style>.cls-1{fill:#fff;}</style></defs><title>tile-folder</title><g id="Layer_1" data-name="Layer 1"><g id="Layer_1-2" data-name="Layer 1"><path class="cls-1" d="M56,1A55,55,0,1,1,1,56,55.06,55.06,0,0,1,56,1m0-1a56,56,0,1,0,56,56A56.06,56.06,0,0,0,56,0Z"/></g><rect class="cls-1" x="41.02" y="80.1" width="30.33" height="3.23"/><path class="cls-1" d="M80.35,31.49a2.83,2.83,0,0,1,2.82,2.82V65.48a2.83,2.83,0,0,1-2.82,2.82H31.65a2.83,2.83,0,0,1-2.82-2.82V34.32a2.83,2.83,0,0,1,2.82-2.82h48.7m0-2.82H31.65A5.66,5.66,0,0,0,26,34.32V65.48a5.66,5.66,0,0,0,5.65,5.65h48.7A5.66,5.66,0,0,0,86,65.48V34.32a5.66,5.66,0,0,0-5.65-5.65Z"/><rect class="cls-1" x="55.01" y="69.92" width="2.82" height="10.11"/><rect class="cls-1" x="38.72" y="39.9" width="34.55" height="5.23"/><rect class="cls-1" x="38.72" y="54.98" width="34.55" height="5.23"/></g></svg>