<svg xmlns="http://www.w3.org/2000/svg" viewBox="0 0 112 112"><defs><style>.cls-1{fill:#fff;}</style></defs><title>tile-folder</title><g id="Layer_1" data-name="Layer 1"><g id="Layer_1-2" data-name="Layer 1"><path class="cls-1" d="M56,1A55,55,0,1,1,1,56,55.06,55.06,0,0,1,56,1m0-1a56,56,0,1,0,56,56A56.06,56.06,0,0,0,56,0Z"/></g><path class="cls-1" d="M28.53,68.1A32,32,0,0,1,26,56,30,30,0,0,1,71.44,30.27,30.15,30.15,0,0,1,82.25,41.46l-1.45.81A28.33,28.33,0,0,0,56,27.66,28.35,28.35,0,0,0,29.89,67Z"/><path class="cls-1" d="M82.35,43.09,73,41.2a.83.83,0,1,1,.33-1.63L81,41.13l1.55-7.69a.83.83,0,0,1,1.63.33Z"/><path class="cls-1" d="M56,86A30,30,0,0,1,31.38,73.15l1.36-1A28.3,28.3,0,0,0,56,84.34,28.34,28.34,0,0,0,84.34,56a27.73,27.73,0,0,0-1.4-8.83l1.33-1.33A34.74,34.74,0,0,1,86,56,30,30,0,0,1,56,86Z"/><path class="cls-1" d="M30.15,81.34H30a.83.83,0,0,1-.68-1L31,71l9.37,1.63A.83.83,0,1,1,40,74.26l-7.73-1.35L31,80.65A.83.83,0,0,1,30.15,81.34Z"/><path class="cls-1" d="M71.83,53.39A15.92,15.92,0,0,0,69,46.65l2.37-2.37-3.69-3.69L65.34,43a16,16,0,0,0-6.73-2.79V36.81H53.39v3.36A16,16,0,0,0,46.66,43l-2.38-2.38-3.69,3.69L43,46.65a15.92,15.92,0,0,0-2.79,6.74H36.81v5.22h3.36A15.92,15.92,0,0,0,43,65.35l-2.37,2.37,3.69,3.69L46.66,69a16,16,0,0,0,6.73,2.79v3.36h5.22V71.82A16,16,0,0,0,65.34,69l2.38,2.38,3.69-3.69L69,65.35a15.92,15.92,0,0,0,2.79-6.74h3.36V53.39ZM56,70A14,14,0,1,1,70,56,14,14,0,0,1,56,70Z"/><path class="cls-1" d="M64.08,61.51a7.93,7.93,0,0,0-.36-2.08,2.12,2.12,0,0,0-1.26-1.33,9.21,9.21,0,0,0-2-.55,7.54,7.54,0,0,1-1.55-.4,1.79,1.79,0,0,1-.64-.49,2.17,2.17,0,0,1-.25-.39L57.86,56l.19-.16a3.72,3.72,0,0,0,.79-.9,5.43,5.43,0,0,0,.68-1.76l0-.19.18-.05a.56.56,0,0,0,.27-.22,1.63,1.63,0,0,0,.25-.64,1.37,1.37,0,0,0-.09-.88l-.06-.11,0-.13,0-.15a4.74,4.74,0,0,0,.06-1.17A7.81,7.81,0,0,0,60,48.3a3.11,3.11,0,0,0-1.26-1.67,4.59,4.59,0,0,0-2.69-.82h-.17a4.59,4.59,0,0,0-2.69.82A3.11,3.11,0,0,0,52,48.3a7.81,7.81,0,0,0-.21,1.39,4.74,4.74,0,0,0,.06,1.17l0,.15,0,.13-.06.11a1.37,1.37,0,0,0-.09.88,1.63,1.63,0,0,0,.25.64.56.56,0,0,0,.27.22l.18.05,0,.19A5.43,5.43,0,0,0,53.16,55a3.72,3.72,0,0,0,.79.9l.19.16-.12.23a2.17,2.17,0,0,1-.25.39,1.79,1.79,0,0,1-.64.49,7.54,7.54,0,0,1-1.55.4,9.21,9.21,0,0,0-2,.55,2.12,2.12,0,0,0-1.26,1.33,7.93,7.93,0,0,0-.36,2.08,1.81,1.81,0,0,0,0,.37v.84a1.47,1.47,0,0,0,1.45,1.45H62.68a1.47,1.47,0,0,0,1.45-1.45v-.84A1.81,1.81,0,0,0,64.08,61.51Z"/></g></svg>