<svg xmlns="http://www.w3.org/2000/svg" viewBox="0 0 112 112"><defs><style>.cls-1{fill:#fff;}</style></defs><title>tile-folder</title><g id="Layer_1" data-name="Layer 1"><path class="cls-1" d="M56,1A55,55,0,1,1,1,56,55.06,55.06,0,0,1,56,1m0-1a56,56,0,1,0,56,56A56,56,0,0,0,56,0Z"/><path class="cls-1" d="M55,24.85l-8.37,17a1.15,1.15,0,0,1-.87.63L27,45.18a1.16,1.16,0,0,0-.64,2L39.9,60.36a1.17,1.17,0,0,1,.33,1L37,80a1.16,1.16,0,0,0,1.68,1.22l16.75-8.8a1.16,1.16,0,0,1,1.08,0l16.75,8.8A1.16,1.16,0,0,0,75,80l-3.2-18.65a1.15,1.15,0,0,1,.33-1L85.65,47.15a1.16,1.16,0,0,0-.64-2L66.28,42.45a1.15,1.15,0,0,1-.87-.63L57,24.85A1.16,1.16,0,0,0,55,24.85Z"/></g></svg>