<svg xmlns="http://www.w3.org/2000/svg" viewBox="0 0 112 112"><defs><style>.cls-1{fill:#fff;}.cls-2{opacity:0.1;}</style></defs><title>tile-folder</title><g id="Layer_1" data-name="Layer 1"><path class="cls-1" d="M56,1A55,55,0,1,1,1,56,55.06,55.06,0,0,1,56,1m0-1a56,56,0,1,0,56,56A56,56,0,0,0,56,0Z"/><g class="cls-2"><circle class="cls-1" cx="56.05" cy="56.08" r="28.36"/></g><path class="cls-1" d="M53.35,43.89h-5v31a21.59,21.59,0,0,0,5,1.1Z"/><path class="cls-1" d="M63.34,57.2h-5V75.94a21.56,21.56,0,0,0,5-1.28Z"/><path class="cls-1" d="M38.76,52.89V68.28a21.83,21.83,0,0,0,4.17,3.86V52.89Z"/><path class="cls-1" d="M73.34,66.75V48.46h-5V71.91A21.83,21.83,0,0,0,73.34,66.75Z"/><path class="cls-1" d="M28.53,68.1A32,32,0,0,1,26,56,30,30,0,0,1,71.44,30.27,30.15,30.15,0,0,1,82.25,41.46l-1.45.81A28.33,28.33,0,0,0,56,27.66,28.35,28.35,0,0,0,29.89,67Z"/><path class="cls-1" d="M82.35,43.09,73,41.2a.83.83,0,1,1,.33-1.63L81,41.13l1.55-7.69a.83.83,0,0,1,1.63.33Z"/><path class="cls-1" d="M56,86A30,30,0,0,1,31.38,73.15l1.36-1A28.3,28.3,0,0,0,56,84.34,28.34,28.34,0,0,0,84.34,56a27.73,27.73,0,0,0-1.4-8.83l1.33-1.33A34.74,34.74,0,0,1,86,56,30,30,0,0,1,56,86Z"/><path class="cls-1" d="M30.15,81.34H30a.83.83,0,0,1-.68-1L31,71l9.37,1.63A.83.83,0,1,1,40,74.26l-7.73-1.35L31,80.65A.83.83,0,0,1,30.15,81.34Z"/></g></svg>