<?xml version="1.0" encoding="utf-8"?>
<!-- Generator: Adobe Illustrator 22.0.1, SVG Export Plug-In . SVG Version: 6.00 Build 0)  -->
<svg version="1.1" id="Layer_1" xmlns="http://www.w3.org/2000/svg" xmlns:xlink="http://www.w3.org/1999/xlink" x="0px" y="0px"
	 viewBox="0 0 36 36" style="enable-background:new 0 0 36 36;" xml:space="preserve">
<style type="text/css">
	.st0{fill:#F05822;}
	.st1{fill:#FFFFFF;}
	.st2{opacity:0.6;fill:#FFFFFF;enable-background:new    ;}
</style>
<circle class="st0" cx="18" cy="18" r="17.5"/>
<path class="st1" d="M18,1c9.4,0,17,7.6,17,17s-7.6,17-17,17S1,27.4,1,18S8.6,1,18,1 M18,0C8.1,0,0,8.1,0,18s8.1,18,18,18
	s18-8.1,18-18S27.9,0,18,0z"/>
<g>
	<path class="st2" d="M29.4,16.1c-0.3-1.8-1-3.4-2-4.9l1.7-1.7l-2.7-2.7l-1.7,1.7c-1.4-1-3.1-1.7-4.9-2V4.1h-3.8v2.4
		c-1.8,0.3-3.4,1-4.9,2L9.5,6.9L6.9,9.5l1.7,1.7c-1,1.4-1.7,3.1-2,4.9H4.1v3.8h2.4c0.3,1.8,1,3.4,2,4.9l-1.7,1.7l2.7,2.7l1.7-1.7
		c1.4,1,3.1,1.7,4.9,2v2.4h3.8v-2.4c1.8-0.3,3.4-1,4.9-2l1.7,1.7l2.7-2.7l-1.7-1.7c1-1.4,1.7-3.1,2-4.9h2.4v-3.8H29.4z M18,28.1
		c-5.6,0-10.1-4.5-10.1-10.1S12.4,7.9,18,7.9S28.1,12.4,28.1,18l0,0C28.1,23.6,23.6,28.1,18,28.1z"/>
	<path class="st1" d="M23.8,22c0-0.5-0.1-1-0.3-1.5c-0.1-0.5-0.5-0.8-0.9-1c-0.5-0.2-1-0.3-1.5-0.4c-0.4-0.1-0.8-0.2-1.1-0.3
		c-0.2-0.1-0.3-0.2-0.5-0.4c-0.1-0.1-0.1-0.2-0.2-0.3L19.3,18l0.1-0.1c0.2-0.2,0.4-0.4,0.6-0.6c0.2-0.4,0.4-0.8,0.5-1.2v-0.1h0.1
		c0.1,0,0.1-0.1,0.2-0.2c0.1-0.1,0.1-0.3,0.2-0.5c0.1-0.2,0-0.4-0.1-0.6v-0.1v-0.1v-0.1c0-0.3,0-0.6,0-0.9c0-0.3-0.1-0.7-0.1-1
		c-0.2-0.5-0.5-0.9-0.9-1.2c-0.6-0.4-1.2-0.6-1.9-0.6h-0.1c-0.7,0-1.4,0.2-1.9,0.6c-0.4,0.3-0.8,0.7-0.9,1.2c-0.1,0.3-0.1,0.7-0.1,1
		c0,0.3,0,0.6,0,0.9v0.1v0.1v0.1c-0.1,0.2-0.1,0.4-0.1,0.6c0,0.2,0.1,0.3,0.2,0.5c0,0.1,0.1,0.1,0.2,0.2h0.1V16
		c0.1,0.5,0.4,0.9,0.7,1.3c0.2,0.2,0.3,0.5,0.6,0.6l0.1,0.1l-0.1,0.2c-0.1,0.1-0.1,0.2-0.2,0.3c-0.1,0.1-0.3,0.3-0.5,0.4
		c-0.4,0.1-0.7,0.2-1.1,0.3c-0.5,0.1-1,0.2-1.5,0.4c-0.4,0.2-0.8,0.5-0.9,1c-0.2,0.5-0.3,1-0.3,1.5c0,0.1,0,0.2,0,0.3v0.6
		c0,0.6,0.5,1,1.1,1h9.7c0.6,0,1-0.5,1-1v-0.6C23.9,22.2,23.9,22.1,23.8,22z"/>
</g>
</svg>
