<?xml version="1.0" encoding="utf-8"?>
<!-- Generator: Adobe Illustrator 22.0.1, SVG Export Plug-In . SVG Version: 6.00 Build 0)  -->
<svg version="1.1" id="Layer_1" xmlns="http://www.w3.org/2000/svg" xmlns:xlink="http://www.w3.org/1999/xlink" x="0px" y="0px"
	 viewBox="0 0 36 36" style="enable-background:new 0 0 36 36;" xml:space="preserve">
<style type="text/css">
	.st0{fill:#08A61A;}
	.st1{fill:#FFFFFF;}
</style>
<g>
	<circle class="st0" cx="18" cy="18" r="17.5"/>
	<path class="st1" d="M18,1c9.4,0,17,7.6,17,17s-7.6,17-17,17S1,27.4,1,18S8.6,1,18,1 M18,0C8.1,0,0,8.1,0,18s8.1,18,18,18
		s18-8.1,18-18S27.9,0,18,0z"/>
	<path class="st1" d="M25.4,7.8L25.4,7.8c-0.2-0.3-0.4-0.5-0.7-0.6l-5.3-1.6c-0.3-0.1-0.6-0.1-0.9,0.1c-0.3,0.2-0.5,0.4-0.6,0.7
		l-0.4,1.4h-0.9c-0.3,0-0.6,0.1-0.8,0.3c-0.2,0.2-0.3,0.5-0.4,0.8l-0.1,9.1c0,0.3,0.1,0.6,0.3,0.8c0.2,0.2,0.5,0.3,0.8,0.4l5.6,0.1
		c0.3,0,0.6-0.1,0.8-0.3c0.2-0.2,0.4-0.5,0.4-0.8v-1.6l2.3-7.8C25.6,8.4,25.5,8.1,25.4,7.8z M22.9,8.3C22.7,8.1,22.4,8,22.1,8h-3.6
		l0.3-1.1c0-0.1,0-0.1,0.1-0.2c0,0,0,0,0,0c0,0,0.1,0,0.1,0l5.3,1.6c0,0,0.1,0,0.1,0.1c0,0,0,0.1,0,0.1l-1.2,4.2V9.1
		C23.3,8.8,23.2,8.5,22.9,8.3z"/>
	<g>
		<path class="st1" d="M23.7,14.8c-0.3,0-0.6,0.2-0.6,0.5c0,0,0,0,0,0c0,0.3,0.2,0.6,0.6,0.6c0,0,0,0,0,0h3.8
			c-0.1,0.2-0.2,0.4-0.2,0.6c-0.2,0.5-0.4,1-1.2,2.7c-0.4,1-1.1,1.8-2,2.4c-0.3,0.2-0.6,0.3-1,0.3h-7.7c-1.1,0-2-0.7-2.3-1.7
			l-0.1-0.7c-0.2-1.1-0.5-3-0.7-4.2c-0.1-1.2-1-2.1-2.2-2.2H7.3c-0.3,0-0.6,0.3-0.6,0.6c0,0.3,0.3,0.6,0.6,0.6c0,0,0,0,0,0h2.5
			c0.2,0,0.4,0.1,0.5,0.2c0.4,0.2,0.6,0.6,0.7,1.1c0.1,0.8,0.4,2.1,0.5,3.2c0,0.1,0,0.2,0,0.2l0.3,1.5v0c0,0,0,0,0,0l0.6,3.2
			c0,0.5,0.2,0.9,0.4,1.3c0.7,0.9,1.8,1.3,2.9,1.2H24c0.3,0,0.6-0.3,0.6-0.6c0-0.3-0.2-0.6-0.5-0.6c0,0,0,0-0.1,0h-8.2
			c-0.7,0.1-1.4-0.2-1.9-0.7c-0.1-0.2-0.2-0.4-0.3-0.7l-0.2-1.1c0.6,0.4,1.3,0.6,2,0.6H23c0.2,0,2.4-0.1,4-3.4
			c1.4-2.9,1.8-3.8,1.9-4.1l0.4-0.8L23.7,14.8z"/>
		<path class="st1" d="M15.2,26.6c-1.1,0-1.9,0.9-1.9,1.9s0.9,1.9,1.9,1.9c1.1,0,1.9-0.9,1.9-1.9S16.2,26.6,15.2,26.6z M15.2,29.3
			c-0.4,0-0.8-0.3-0.8-0.8s0.3-0.8,0.8-0.8s0.8,0.3,0.8,0.8S15.6,29.3,15.2,29.3z"/>
		<path class="st1" d="M22.6,26.6c-1.1,0-1.9,0.9-1.9,1.9s0.9,1.9,1.9,1.9s1.9-0.9,1.9-1.9S23.7,26.6,22.6,26.6z M22.6,29.3
			c-0.4,0-0.8-0.3-0.8-0.8s0.3-0.8,0.8-0.8s0.8,0.3,0.8,0.8S23.1,29.3,22.6,29.3z"/>
	</g>
</g>
</svg>
