<svg id="screens" xmlns="http://www.w3.org/2000/svg" viewBox="0 0 24 24"><defs><style>.cls-1{fill:#fff;}</style></defs><title>invitation24_li</title><path class="cls-1" d="M22,12v9.41a.59.59,0,0,1-.51.61h-19A.59.59,0,0,1,2,21.37V12l8.82,6.37,1.17.85,1.17-.85L22,12m2-3.9L12,16.71,0,8.06l0,0V21.37A2.57,2.57,0,0,0,2.51,24h19A2.57,2.57,0,0,0,24,21.37V8.08l0,0Z"/><path class="cls-1" d="M18.93,0H5A1.19,1.19,0,0,0,3.9,1.23V8.61l8.09,6,8.09-6v-7C20.08.55,19.56,0,18.93,0Zm-3,7.74H7.74a.5.5,0,0,1-.5-.5.51.51,0,0,1,.5-.5h8.15a.5.5,0,0,1,.5.5A.5.5,0,0,1,15.89,7.74Zm0-3.14H7.74a.5.5,0,0,1-.5-.5.51.51,0,0,1,.5-.5h8.15a.5.5,0,0,1,.5.5A.5.5,0,0,1,15.89,4.6Z"/></svg>