<svg id="Layer_1" data-name="Layer 1" xmlns="http://www.w3.org/2000/svg" viewBox="0 0 42 42"><defs><style>.cls-1{fill:#7b9ab0;}.cls-2{fill:#fff;}</style></defs><title>li_header_user42_mo</title><g id="Layer_2" data-name="Layer 2"><g id="Layer_1-2" data-name="Layer 1-2"><path class="cls-1" d="M21,2A19,19,0,1,1,2,21,19,19,0,0,1,21,2m0-2A21,21,0,1,0,42,21,21,21,0,0,0,21,0Z"/></g></g><path class="cls-2" d="M30.52,13.41c-.41-.31-.61-.6-1.22-.6H12.69c-.61.1-.82.41-1.33.71l9.58,9Z"/><path class="cls-2" d="M31.54,14.63,21.36,23.9A.86.86,0,0,1,21,24a.43.43,0,0,1-.31-.1L10.46,14.63a2.66,2.66,0,0,0-.71,1.73v9.78a3,3,0,0,0,2.94,3.05H29.3a3,3,0,0,0,2.95-3V16.46A2.94,2.94,0,0,0,31.54,14.63Z"/></svg>