<svg xmlns="http://www.w3.org/2000/svg" viewBox="0 0 24 24"><defs><style>.cls-1{fill:#725ea6;}</style></defs><title>notification_community24</title><g id="messages"><path class="cls-1" d="M6.22,9.87A2.88,2.88,0,0,1,6.37,8.7a2.62,2.62,0,0,1,.5-1.35A1.19,1.19,0,0,1,6.43,7a1.51,1.51,0,0,1-.18-.26l-.1-.21.21-.19a2.38,2.38,0,0,0,.49-.56,3.42,3.42,0,0,0,.43-1.11V4.52l.16,0a.24.24,0,0,0,.13-.11A.89.89,0,0,0,7.72,4a.81.81,0,0,0,0-.51l-.06-.1,0-.21a2.56,2.56,0,0,0,0-.73,4.35,4.35,0,0,0-.13-.88,1.86,1.86,0,0,0-.8-1A2.91,2.91,0,0,0,5.11,0,2.86,2.86,0,0,0,3.42.52a1.89,1.89,0,0,0-.8,1,5.31,5.31,0,0,0-.13.89,3,3,0,0,0,0,.73l0,.21-.06.1a.89.89,0,0,0,0,.51,1.26,1.26,0,0,0,.15.38.24.24,0,0,0,.13.11l.17,0v.17A3.4,3.4,0,0,0,3.3,5.8a2.38,2.38,0,0,0,.49.56L4,6.51l0,.21A1.27,1.27,0,0,1,3.77,7a1.37,1.37,0,0,1-.45.34,5,5,0,0,1-1,.29A5.69,5.69,0,0,0,1,8a1.27,1.27,0,0,0-.81.8A5,5,0,0,0,0,10.11a.88.88,0,0,0,0,.23v.5a.85.85,0,0,0,.85.85H6.38a2.75,2.75,0,0,1-.11-.95A2.83,2.83,0,0,1,6.22,9.87Z"/><path class="cls-1" d="M23.76,8.77A1.25,1.25,0,0,0,23,8a6.13,6.13,0,0,0-1.32-.35,5.09,5.09,0,0,1-1-.26A1.17,1.17,0,0,1,20.17,7a1.38,1.38,0,0,1-.14-.3l-.1-.21.18-.15a2.38,2.38,0,0,0,.49-.56A3.42,3.42,0,0,0,21,4.69V4.52l.17,0a.28.28,0,0,0,.13-.11A1,1,0,0,0,21.47,4a.81.81,0,0,0,0-.51l-.05-.1,0-.21a2.56,2.56,0,0,0,0-.73,5.18,5.18,0,0,0-.12-.88,1.93,1.93,0,0,0-.81-1A2.82,2.82,0,0,0,18.89,0,2.86,2.86,0,0,0,17.2.52a1.89,1.89,0,0,0-.8,1,4.45,4.45,0,0,0-.13.89,3,3,0,0,0,0,.73l.05.21-.06.1a.81.81,0,0,0-.05.51.89.89,0,0,0,.15.38.25.25,0,0,0,.12.11l.17,0v.17a3.42,3.42,0,0,0,.43,1.11,2.38,2.38,0,0,0,.49.56l.18.15-.11.21a1.78,1.78,0,0,1-.17.27,1.48,1.48,0,0,1-.37.29,2.83,2.83,0,0,1,.25,1,2.88,2.88,0,0,1,.22,1.83,3,3,0,0,1-.06.94,2.73,2.73,0,0,1-.16.64h5.8a.85.85,0,0,0,.85-.85v-.72A5.17,5.17,0,0,0,23.76,8.77Z"/><path class="cls-1" d="M6.06,24H17.92a1.18,1.18,0,0,0,1.18-1.18v-.73a1,1,0,0,0,0-.24V21.8a7.05,7.05,0,0,0-.32-1.88,1.78,1.78,0,0,0-1.07-1.12,7.88,7.88,0,0,0-1.84-.52,6.46,6.46,0,0,1-1.42-.37,1.74,1.74,0,0,1-.63-.48,2.35,2.35,0,0,1-.24-.37l-.12-.25.25-.2a3.6,3.6,0,0,0,.68-.78,4.77,4.77,0,0,0,.54-1.55L15,14l.23-.06a.4.4,0,0,0,.18-.16,1.34,1.34,0,0,0,.27-.53,1.11,1.11,0,0,0-.07-.74l-.08-.14.08-.3a3.86,3.86,0,0,0,.05-1,7.17,7.17,0,0,0-.17-1.22,2.62,2.62,0,0,0-1.09-1.46A4,4,0,0,0,12,7.75a4,4,0,0,0-2.35.74A2.65,2.65,0,0,0,8.55,10a8.35,8.35,0,0,0-.18,1.22,4.37,4.37,0,0,0,.05,1l.07.29-.08.14a1.09,1.09,0,0,0-.07.73,1.28,1.28,0,0,0,.21.53.35.35,0,0,0,.17.15l.24.07,0,.24A4.78,4.78,0,0,0,9.6,15.9a3.22,3.22,0,0,0,.69.78l.23.13-.15.29a1.6,1.6,0,0,1-.25.37A1.62,1.62,0,0,1,9.5,18a7.6,7.6,0,0,1-1.42.37,7.58,7.58,0,0,0-1.81.49,1.7,1.7,0,0,0-1,1.11,6.84,6.84,0,0,0-.32,1.85,1.12,1.12,0,0,0,0,.32v.73A1.18,1.18,0,0,0,6.06,24Z"/><path class="cls-1" d="M4.48,15.51a8.56,8.56,0,0,1-.86-2.66,2.42,2.42,0,0,1-.88.16A2.88,2.88,0,0,1,2,12.9,10.07,10.07,0,0,0,2.92,16a15,15,0,0,0,.92,1.56l0,.06a11,11,0,0,0,.82,1,2.24,2.24,0,0,1,1.27-1A8.1,8.1,0,0,1,4.48,15.51Z"/><path class="cls-1" d="M19.51,15.43a8.29,8.29,0,0,0,.85-2.66,2.52,2.52,0,0,0,.89.16,2.88,2.88,0,0,0,.75-.11,10.07,10.07,0,0,1-.93,3.09,17.09,17.09,0,0,1-.92,1.56s0,.06,0,.06a9.46,9.46,0,0,1-.81,1,2.24,2.24,0,0,0-1.27-1A8.1,8.1,0,0,0,19.51,15.43Z"/><path class="cls-1" d="M15.33,2.14a9.7,9.7,0,0,0-6.55,0,2.75,2.75,0,0,1,0,1.21,2.07,2.07,0,0,1,0,.5,8.22,8.22,0,0,1,6.5,0A2.93,2.93,0,0,1,15.33,2.14Z"/></g></svg>