<svg id="screens" xmlns="http://www.w3.org/2000/svg" viewBox="0 0 24 24"><defs><style>.cls-1{fill:#fff;}</style></defs><title>notification_new_transactions24_li</title><path class="cls-1" d="M5.27,14.29v-12A1.27,1.27,0,0,1,6.37.93h8.8l3.56,4v9.35h.93V4.58L15.59,0H6.37a2.18,2.18,0,0,0-2,2.29v12Z"/><polygon class="cls-1" points="22.54 10.31 21.02 10.31 21.02 11.71 21.42 11.71 22.48 15.61 11.99 15.61 1.5 15.61 2.56 11.71 2.95 11.71 2.95 10.31 1.45 10.31 0 15.49 0 24 11.99 24 23.98 24 23.98 15.49 22.54 10.31"/></svg>