<svg id="Layer_1" data-name="Layer 1" xmlns="http://www.w3.org/2000/svg" viewBox="0 0 36 36"><title>Partners_in_gpd32</title><circle cx="18" cy="18" r="18" style="fill:#00639b"/><g style="opacity:0.65"><path d="M18,4.59A13.41,13.41,0,0,0,7.64,26.51v0h0A13.41,13.41,0,1,0,18,4.59Zm9.05,4.95h-3a10.8,10.8,0,0,0-2.42-3.4A12.46,12.46,0,0,1,27.05,9.54ZM18.41,5.63c1.75.2,3.36,1.67,4.52,3.91H18.41Zm-1,0V9.54H13.07C14.19,7.38,15.72,5.93,17.41,5.65Zm-3.05.49a10.8,10.8,0,0,0-2.42,3.4H9A12.46,12.46,0,0,1,14.36,6.14ZM9,26.54h3a10.78,10.78,0,0,0,2.39,3.32A12.52,12.52,0,0,1,9,26.54Zm8.39,3.81c-1.67-.28-3.18-1.7-4.3-3.81h4.3Zm1,0V26.54h4.48C21.73,28.73,20.14,30.17,18.41,30.37Zm3.23-.51A10.78,10.78,0,0,0,24,26.54H27A12.52,12.52,0,0,1,21.64,29.86Zm6.19-4.32H24.47a18.72,18.72,0,0,0,.83-2.8h-1v.32a2,2,0,0,1-.59,1.42c-.12.36-.24.73-.38,1.06h-5v-.42h-1v.42H12.63c-.14-.34-.27-.71-.39-1.08a2.14,2.14,0,0,1-.4-.58,1.89,1.89,0,0,1-.17-.7v-.44h-1a18.72,18.72,0,0,0,.83,2.8H8.17a12.31,12.31,0,0,1-2.54-6.86H6.7a2.09,2.09,0,0,1,1-.86,3.17,3.17,0,0,1,.4-.14H5.61a12.34,12.34,0,0,1,2.5-7.14H11.5c-.16.4-.29.84-.42,1.27h.1a3.18,3.18,0,0,1,.92.14c.15-.49.32-1,.5-1.4h4.81V11A3.7,3.7,0,0,1,18,11c.15,0,.27,0,.41,0v-.46h5c.18.43.34.89.49,1.37a3.22,3.22,0,0,1,.8-.11l.24,0c-.14-.44-.27-.87-.43-1.28h3.39a12.34,12.34,0,0,1,2.5,7.14H27.8a2.7,2.7,0,0,1,.4.14,2.09,2.09,0,0,1,1,.86h1.2A12.31,12.31,0,0,1,27.83,25.54Z" style="fill:#fff"/></g><path d="M11.67,20.6A2.49,2.49,0,0,1,13.1,19a4.92,4.92,0,0,1,1-.32h0a4.86,4.86,0,0,0-1-.28,3.26,3.26,0,0,1-.69-.18A.58.58,0,0,1,12.1,18a.62.62,0,0,1-.1-.16,2,2,0,0,0,.4-.46,2.69,2.69,0,0,0,.33-.88.37.37,0,0,0,.21-.17.78.78,0,0,0,.14-.36.8.8,0,0,0-.06-.52s0-.05,0-.08a2.74,2.74,0,0,0,0-.59,3.15,3.15,0,0,0-.1-.68,1.6,1.6,0,0,0-.65-.88A2.25,2.25,0,0,0,11,12.83a2.31,2.31,0,0,0-1.35.42,1.65,1.65,0,0,0-.65.88,4.1,4.1,0,0,0-.1.68,2.74,2.74,0,0,0,0,.59.31.31,0,0,1,0,.08.87.87,0,0,0-.06.52,1.08,1.08,0,0,0,.14.36.41.41,0,0,0,.21.17,2.69,2.69,0,0,0,.34.88,1.81,1.81,0,0,0,.4.47l-.1.15a.64.64,0,0,1-.25.19,3.37,3.37,0,0,1-.7.18,5,5,0,0,0-1,.28,1.16,1.16,0,0,0-.67.72,4.18,4.18,0,0,0-.17.94v.08a.62.62,0,0,0,0,.19V21a.64.64,0,0,0,.07.31.83.83,0,0,0,.75.51h3.55A6.17,6.17,0,0,1,11.67,20.6Z" style="fill:#fff"/><path d="M23.39,22a5.75,5.75,0,0,0-.09-.79c0-.17-.08-.35-.15-.59a1.54,1.54,0,0,0-.93-1,5.89,5.89,0,0,0-1.37-.36,5.45,5.45,0,0,1-1-.24,1,1,0,0,1-.35-.26,1.1,1.1,0,0,1-.14-.21A2.48,2.48,0,0,0,20,18a3.69,3.69,0,0,0,.47-1.18.57.57,0,0,0,.28-.22,1.22,1.22,0,0,0,.2-.48,1,1,0,0,0-.08-.69s0-.07,0-.11a3.2,3.2,0,0,0,0-.78,5.78,5.78,0,0,0-.14-.92,2.2,2.2,0,0,0-.9-1.17A3.23,3.23,0,0,0,18,11.89a3.28,3.28,0,0,0-1.86.55,2.18,2.18,0,0,0-.89,1.17,4,4,0,0,0-.14.92,2.79,2.79,0,0,0,0,.78.43.43,0,0,1,0,.11,1,1,0,0,0-.08.69,1.39,1.39,0,0,0,.2.48.52.52,0,0,0,.28.22A3.69,3.69,0,0,0,16,18a2.69,2.69,0,0,0,.55.61.77.77,0,0,1-.14.21,1,1,0,0,1-.34.26,5.35,5.35,0,0,1-1,.24,6,6,0,0,0-1.37.36,1.55,1.55,0,0,0-.92,1,5.12,5.12,0,0,0-.24,1.25.41.41,0,0,1,0,.11,1.9,1.9,0,0,0,0,.25v.53s0,0,0,0a1,1,0,0,0,.09.43,1.15,1.15,0,0,0,1.05.66h8.54a1.14,1.14,0,0,0,1.15-1.11v-.53A.85.85,0,0,0,23.39,22Z" style="fill:#fff"/><path d="M29,20.45a3.53,3.53,0,0,0-.07-.6,2.47,2.47,0,0,0-.11-.43,1.1,1.1,0,0,0-.68-.72,4.22,4.22,0,0,0-1-.27,3.91,3.91,0,0,1-.7-.18.83.83,0,0,1-.26-.19s-.07-.1-.1-.16a1.77,1.77,0,0,0,.4-.46,2.79,2.79,0,0,0,.35-.88A.49.49,0,0,0,27,16.4a1.29,1.29,0,0,0,.14-.36.8.8,0,0,0-.06-.52s0,0,0-.08a2.64,2.64,0,0,0,0-.58,4.34,4.34,0,0,0-.1-.69,1.63,1.63,0,0,0-.66-.87A2.32,2.32,0,0,0,25,12.88a2.36,2.36,0,0,0-1.37.42,1.66,1.66,0,0,0-.65.87,3.11,3.11,0,0,0-.11.69,2.12,2.12,0,0,0,0,.58s0,.06,0,.08a.87.87,0,0,0-.06.52,1.05,1.05,0,0,0,.15.36.4.4,0,0,0,.21.16,2.57,2.57,0,0,0,.34.88,2,2,0,0,0,.4.46.86.86,0,0,1-.1.16.79.79,0,0,1-.25.19,4.15,4.15,0,0,1-.7.18,4.9,4.9,0,0,0-1,.26A5.48,5.48,0,0,1,23,19a2.53,2.53,0,0,1,1.45,1.58c.08.28.13.48.17.68s.05.37.07.57h3.46A.85.85,0,0,0,29,21v-.39A.88.88,0,0,0,29,20.45Z" style="fill:#fff"/></svg>