<svg id="Layer_1" data-name="Layer 1" xmlns="http://www.w3.org/2000/svg" viewBox="0 0 36 36"><title>Partners_added32</title><circle cx="18" cy="18" r="18" style="fill:#338275"/><polygon points="29.21 15.13 26.16 15.13 26.16 11.84 24.28 11.84 24.28 15.13 21.24 15.13 21.24 17 24.28 17 24.28 20.28 26.16 20.28 26.16 17 29.21 17 29.21 15.13" style="fill:#fff"/><path d="M7.79,23.89v.72a1.51,1.51,0,0,0,1.51,1.5H20.56a1.5,1.5,0,0,0,1.38-.9,1.58,1.58,0,0,0,.13-.57v-.75a1.86,1.86,0,0,0,0-.34.66.66,0,0,1,0-.14,7,7,0,0,0-.31-1.69,2.07,2.07,0,0,0-1.22-1.31,8.14,8.14,0,0,0-1.8-.49,6.32,6.32,0,0,1-1.27-.32,1.28,1.28,0,0,1-.45-.35,1.52,1.52,0,0,1-.19-.28,3.43,3.43,0,0,0,.73-.83,4.93,4.93,0,0,0,.62-1.59.73.73,0,0,0,.37-.3,1.46,1.46,0,0,0,.26-.65,1.37,1.37,0,0,0-.11-.94.58.58,0,0,0,0-.14,3.59,3.59,0,0,0,.06-1.06,6.22,6.22,0,0,0-.18-1.24,3,3,0,0,0-1.18-1.58,4.38,4.38,0,0,0-4.9,0,3,3,0,0,0-1.19,1.58,8.27,8.27,0,0,0-.18,1.24,4.42,4.42,0,0,0,.06,1.06.83.83,0,0,0,0,.15,1.33,1.33,0,0,0-.11.93,1.51,1.51,0,0,0,.26.65.78.78,0,0,0,.37.3,4.93,4.93,0,0,0,.62,1.59,3.39,3.39,0,0,0,.72.83,1.34,1.34,0,0,1-.18.28,1.31,1.31,0,0,1-.46.35,6.39,6.39,0,0,1-1.26.32,8.22,8.22,0,0,0-1.81.49,2.08,2.08,0,0,0-1.21,1.31,6.09,6.09,0,0,0-.2.79,6.59,6.59,0,0,0-.12,1.07A1.06,1.06,0,0,0,7.79,23.89Z" style="fill:#fff"/></svg>