<svg id="Layer_1" data-name="Layer 1" xmlns="http://www.w3.org/2000/svg" viewBox="0 0 36 36"><title>partners_in_community32</title><circle cx="18" cy="18" r="18" style="fill:#b4421a"/><path d="M13.4,23.67a2.77,2.77,0,0,1,0-.49A9.45,9.45,0,0,1,13.58,22a8.77,8.77,0,0,1,.23-.92,3.19,3.19,0,0,1,1.54-1.89l-.09,0a5.73,5.73,0,0,1-1-.26,1.1,1.1,0,0,1-.37-.28,1.18,1.18,0,0,1-.14-.22,3.09,3.09,0,0,0,.58-.66,4.15,4.15,0,0,0,.49-1.27.59.59,0,0,0,.3-.24,1.21,1.21,0,0,0,.2-.52,1.1,1.1,0,0,0-.08-.74s0-.08,0-.11a3.3,3.3,0,0,0,.05-.85,5.23,5.23,0,0,0-.15-1,2.37,2.37,0,0,0-.94-1.26,3.47,3.47,0,0,0-3.9,0,2.39,2.39,0,0,0-1,1.26,6.57,6.57,0,0,0-.14,1,3.3,3.3,0,0,0,0,.85l0,.11a1.11,1.11,0,0,0-.09.74,1.21,1.21,0,0,0,.21.52.59.59,0,0,0,.29.24,4,4,0,0,0,.49,1.26,3.15,3.15,0,0,0,.58.67.86.86,0,0,1-.15.22,1,1,0,0,1-.36.28,5.73,5.73,0,0,1-1,.26,6.53,6.53,0,0,0-1.44.39,1.63,1.63,0,0,0-1,1,6.39,6.39,0,0,0-.16.62c0,.28-.07.52-.1.86a2,2,0,0,0,0,.25v.57a1.2,1.2,0,0,0,1.2,1.2H13.4Z" style="fill:#fff"/><path d="M14.64,23.66v.73a1.54,1.54,0,0,0,1.53,1.53H27.65A1.54,1.54,0,0,0,29.06,25a1.64,1.64,0,0,0,.13-.59v-.76a2.09,2.09,0,0,0,0-.35.66.66,0,0,1,0-.14,7.2,7.2,0,0,0-.32-1.72,2.08,2.08,0,0,0-1.24-1.33,8.53,8.53,0,0,0-1.84-.51,5.87,5.87,0,0,1-1.29-.33,1.2,1.2,0,0,1-.46-.35,1.62,1.62,0,0,1-.19-.29,3.33,3.33,0,0,0,.74-.84,4.87,4.87,0,0,0,.63-1.63.67.67,0,0,0,.38-.3,1.7,1.7,0,0,0,.27-.66,1.49,1.49,0,0,0-.11-1l0-.14A4.6,4.6,0,0,0,25.8,13a7.3,7.3,0,0,0-.19-1.27,3,3,0,0,0-1.2-1.61,4.3,4.3,0,0,0-2.5-.76,4.25,4.25,0,0,0-2.5.76,3,3,0,0,0-1.21,1.61A8.82,8.82,0,0,0,18,13a4.63,4.63,0,0,0,.06,1.08.83.83,0,0,0,0,.15,1.45,1.45,0,0,0-.12,1,1.7,1.7,0,0,0,.27.66.71.71,0,0,0,.38.3,4.87,4.87,0,0,0,.63,1.63,3.52,3.52,0,0,0,.74.84,1.62,1.62,0,0,1-.19.29,1.28,1.28,0,0,1-.46.35,6,6,0,0,1-1.29.33,8.37,8.37,0,0,0-1.84.51A2.12,2.12,0,0,0,15,21.45a8,8,0,0,0-.19.8,8.15,8.15,0,0,0-.13,1.09A1.12,1.12,0,0,0,14.64,23.66Z" style="fill:#fff"/></svg>